<mxfile host="drawio-plugin" modified="2024-01-28T20:42:56.902Z" agent="5.0 (X11; Linux x86_64) AppleWebKit/537.36 (KHTML, like Gecko) Chrome/111.0.0.0 Safari/537.36" etag="jqASIaD4ZJEpUS35yq3e" version="20.5.3" type="embed" pages="2"><diagram id="23iRSUPoRavnBvh4doch" name="Page-1"><mxGraphModel dx="1632" dy="1118" grid="1" gridSize="10" guides="1" tooltips="1" connect="1" arrows="1" fold="1" page="1" pageScale="1" pageWidth="827" pageHeight="1169" math="0" shadow="0"><root><mxCell id="0"/><mxCell id="1" parent="0"/><mxCell id="8" value="" style="group" vertex="1" connectable="0" parent="1"><mxGeometry x="29" y="120" width="770" height="380" as="geometry"/></mxCell><mxCell id="2" value="" style="shape=folder;fontStyle=1;spacingTop=10;tabWidth=40;tabHeight=14;tabPosition=left;html=1;" vertex="1" parent="8"><mxGeometry width="770" height="380" as="geometry"/></mxCell><mxCell id="3" value="&lt;u&gt;Camera&lt;/u&gt;&lt;br&gt;&lt;span style=&quot;font-weight: normal;&quot;&gt;(Python-Code since this &lt;br&gt;is probably more limited&lt;br&gt;by the FPS anyways.)&lt;/span&gt;&amp;nbsp;" style="shape=folder;fontStyle=1;spacingTop=10;tabWidth=40;tabHeight=14;tabPosition=left;html=1;" vertex="1" parent="8"><mxGeometry x="40" y="49.99666666666663" width="150" height="140.74074074074073" as="geometry"/></mxCell><mxCell id="4" value="&lt;u&gt;Filtering&lt;/u&gt;&lt;br&gt;&lt;span style=&quot;font-weight: normal;&quot;&gt;(This needs to be faster&amp;nbsp;&lt;br&gt;C++ or C# would probably&lt;br&gt;be a good idea.)&lt;/span&gt;" style="shape=folder;fontStyle=1;spacingTop=10;tabWidth=40;tabHeight=14;tabPosition=left;html=1;" vertex="1" parent="8"><mxGeometry x="295" y="57.033703703703694" width="170" height="126.66666666666663" as="geometry"/></mxCell><mxCell id="6" value="&lt;u&gt;Transmission&lt;/u&gt;&lt;br&gt;&lt;span style=&quot;font-weight: normal;&quot;&gt;UDP-Socket-Transmission&lt;br&gt;using the existing modules&lt;/span&gt;" style="shape=folder;fontStyle=1;spacingTop=10;tabWidth=40;tabHeight=14;tabPosition=left;html=1;" vertex="1" parent="8"><mxGeometry x="560" y="60.55222222222223" width="170" height="119.62962962962965" as="geometry"/></mxCell><mxCell id="Kp_4hMhgHDRuVLOGaOqP-8" value="&lt;u&gt;Compression&lt;/u&gt;&lt;br&gt;&lt;span style=&quot;font-weight: normal;&quot;&gt;(This needs to be faster&amp;nbsp;&lt;br&gt;C++ or C# would probably&lt;br&gt;be a good idea.)&lt;/span&gt;&lt;u&gt;&lt;br&gt;&lt;/u&gt;" style="shape=folder;fontStyle=1;spacingTop=10;tabWidth=40;tabHeight=14;tabPosition=left;html=1;" vertex="1" parent="8"><mxGeometry x="295" y="240" width="170" height="110" as="geometry"/></mxCell><mxCell id="Kp_4hMhgHDRuVLOGaOqP-12" style="edgeStyle=orthogonalEdgeStyle;rounded=0;orthogonalLoop=1;jettySize=auto;html=1;" edge="1" parent="8" source="Kp_4hMhgHDRuVLOGaOqP-11" target="3"><mxGeometry relative="1" as="geometry"/></mxCell><mxCell id="Kp_4hMhgHDRuVLOGaOqP-13" style="edgeStyle=orthogonalEdgeStyle;rounded=0;orthogonalLoop=1;jettySize=auto;html=1;" edge="1" parent="8" source="Kp_4hMhgHDRuVLOGaOqP-11" target="4"><mxGeometry relative="1" as="geometry"><Array as="points"><mxPoint x="115" y="220"/><mxPoint x="380" y="220"/></Array></mxGeometry></mxCell><mxCell id="Kp_4hMhgHDRuVLOGaOqP-14" style="edgeStyle=orthogonalEdgeStyle;rounded=0;orthogonalLoop=1;jettySize=auto;html=1;" edge="1" parent="8" source="Kp_4hMhgHDRuVLOGaOqP-11" target="Kp_4hMhgHDRuVLOGaOqP-8"><mxGeometry relative="1" as="geometry"><Array as="points"><mxPoint x="115" y="220"/><mxPoint x="223" y="220"/><mxPoint x="223" y="295"/></Array></mxGeometry></mxCell><mxCell id="Kp_4hMhgHDRuVLOGaOqP-15" style="edgeStyle=orthogonalEdgeStyle;rounded=0;orthogonalLoop=1;jettySize=auto;html=1;exitX=0.507;exitY=0.13;exitDx=0;exitDy=0;exitPerimeter=0;" edge="1" parent="8" source="Kp_4hMhgHDRuVLOGaOqP-11" target="6"><mxGeometry relative="1" as="geometry"><Array as="points"><mxPoint x="115" y="253"/><mxPoint x="115" y="220"/><mxPoint x="645" y="220"/></Array></mxGeometry></mxCell><mxCell id="Kp_4hMhgHDRuVLOGaOqP-11" value="&lt;u&gt;VideoController&lt;/u&gt;" style="shape=folder;fontStyle=1;spacingTop=10;tabWidth=40;tabHeight=14;tabPosition=left;html=1;" vertex="1" parent="8"><mxGeometry x="40" y="240" width="150" height="100" as="geometry"/></mxCell></root></mxGraphModel></diagram><diagram id="QhcltbAcBhOWz7ruYMGR" name="Sequence-Diagram"><mxGraphModel dx="1632" dy="1118" grid="1" gridSize="10" guides="1" tooltips="1" connect="1" arrows="1" fold="1" page="1" pageScale="1" pageWidth="827" pageHeight="1169" math="0" shadow="0"><root><mxCell id="0"/><mxCell id="1" parent="0"/><mxCell id="MklySer9mSSO_9Dpl_KQ-9" value="VideoController" style="shape=umlLifeline;perimeter=lifelinePerimeter;whiteSpace=wrap;html=1;container=1;collapsible=0;recursiveResize=0;outlineConnect=0;size=50;" vertex="1" parent="1"><mxGeometry x="110" y="5" width="110" height="355" as="geometry"/></mxCell><mxCell id="MklySer9mSSO_9Dpl_KQ-10" value="" style="shape=umlLifeline;participant=umlActor;perimeter=lifelinePerimeter;whiteSpace=wrap;html=1;container=1;collapsible=0;recursiveResize=0;verticalAlign=top;spacingTop=36;outlineConnect=0;size=55;" vertex="1" parent="1"><mxGeometry x="40" y="5" width="30" height="360" as="geometry"/></mxCell><mxCell id="MklySer9mSSO_9Dpl_KQ-12" value="Camera" style="shape=umlLifeline;perimeter=lifelinePerimeter;whiteSpace=wrap;html=1;container=1;collapsible=0;recursiveResize=0;outlineConnect=0;size=50;" vertex="1" parent="1"><mxGeometry x="260" y="5" width="110" height="355" as="geometry"/></mxCell><mxCell id="MklySer9mSSO_9Dpl_KQ-13" value="Filtering" style="shape=umlLifeline;perimeter=lifelinePerimeter;whiteSpace=wrap;html=1;container=1;collapsible=0;recursiveResize=0;outlineConnect=0;size=50;" vertex="1" parent="1"><mxGeometry x="413.5" y="7.5" width="110" height="355" as="geometry"/></mxCell><mxCell id="MklySer9mSSO_9Dpl_KQ-14" value="Compression" style="shape=umlLifeline;perimeter=lifelinePerimeter;whiteSpace=wrap;html=1;container=1;collapsible=0;recursiveResize=0;outlineConnect=0;size=50;" vertex="1" parent="1"><mxGeometry x="570" y="7.5" width="110" height="355" as="geometry"/></mxCell><mxCell id="MklySer9mSSO_9Dpl_KQ-15" value="startVideoStream" style="html=1;verticalAlign=bottom;endArrow=block;rounded=0;" edge="1" parent="1" source="MklySer9mSSO_9Dpl_KQ-10" target="MklySer9mSSO_9Dpl_KQ-9"><mxGeometry x="-0.0048" width="80" relative="1" as="geometry"><mxPoint x="60" y="100" as="sourcePoint"/><mxPoint x="140" y="100" as="targetPoint"/><Array as="points"><mxPoint x="90" y="80"/></Array><mxPoint as="offset"/></mxGeometry></mxCell><mxCell id="MklySer9mSSO_9Dpl_KQ-17" value="produceCamera" style="html=1;verticalAlign=bottom;endArrow=block;rounded=0;" edge="1" parent="1" source="MklySer9mSSO_9Dpl_KQ-9" target="MklySer9mSSO_9Dpl_KQ-12"><mxGeometry width="80" relative="1" as="geometry"><mxPoint x="180" y="90" as="sourcePoint"/><mxPoint x="240" y="90" as="targetPoint"/><Array as="points"><mxPoint x="250" y="90"/></Array></mxGeometry></mxCell><mxCell id="MklySer9mSSO_9Dpl_KQ-18" value="Camera-instance" style="html=1;verticalAlign=bottom;endArrow=open;dashed=1;endSize=8;rounded=0;" edge="1" parent="1" source="MklySer9mSSO_9Dpl_KQ-12" target="MklySer9mSSO_9Dpl_KQ-9"><mxGeometry relative="1" as="geometry"><mxPoint x="310" y="110" as="sourcePoint"/><mxPoint x="230" y="110" as="targetPoint"/><Array as="points"><mxPoint x="250" y="110"/><mxPoint x="190" y="110"/></Array></mxGeometry></mxCell><mxCell id="MklySer9mSSO_9Dpl_KQ-22" value="readCameraInLoop" style="html=1;verticalAlign=bottom;endArrow=block;rounded=0;" edge="1" parent="1" source="MklySer9mSSO_9Dpl_KQ-9" target="MklySer9mSSO_9Dpl_KQ-12"><mxGeometry x="0.0067" width="80" relative="1" as="geometry"><mxPoint x="170" y="140" as="sourcePoint"/><mxPoint x="250" y="140" as="targetPoint"/><Array as="points"><mxPoint x="190" y="130"/><mxPoint x="220" y="130"/><mxPoint x="260" y="130"/></Array><mxPoint as="offset"/></mxGeometry></mxCell><mxCell id="MklySer9mSSO_9Dpl_KQ-25" value="BusTransactions" style="shape=umlLifeline;perimeter=lifelinePerimeter;whiteSpace=wrap;html=1;container=1;collapsible=0;recursiveResize=0;outlineConnect=0;size=50;" vertex="1" parent="1"><mxGeometry x="730" y="7.5" width="110" height="355" as="geometry"/></mxCell><mxCell id="MklySer9mSSO_9Dpl_KQ-26" value="FileStorage" style="shape=umlLifeline;perimeter=lifelinePerimeter;whiteSpace=wrap;html=1;container=1;collapsible=0;recursiveResize=0;outlineConnect=0;size=50;" vertex="1" parent="1"><mxGeometry x="890" y="5" width="110" height="355" as="geometry"/></mxCell><mxCell id="MklySer9mSSO_9Dpl_KQ-27" value="setResolution" style="html=1;verticalAlign=bottom;endArrow=block;rounded=0;" edge="1" parent="1" source="MklySer9mSSO_9Dpl_KQ-12" target="MklySer9mSSO_9Dpl_KQ-13"><mxGeometry width="80" relative="1" as="geometry"><mxPoint x="320" y="160" as="sourcePoint"/><mxPoint x="400" y="160" as="targetPoint"/><Array as="points"><mxPoint x="340" y="140"/><mxPoint x="400" y="140"/></Array></mxGeometry></mxCell><mxCell id="MklySer9mSSO_9Dpl_KQ-29" value="File" style="html=1;verticalAlign=bottom;endArrow=open;dashed=1;endSize=8;rounded=0;" edge="1" parent="1" source="MklySer9mSSO_9Dpl_KQ-26" target="MklySer9mSSO_9Dpl_KQ-13"><mxGeometry relative="1" as="geometry"><mxPoint x="940" y="170" as="sourcePoint"/><mxPoint x="860" y="170" as="targetPoint"/><Array as="points"><mxPoint x="740" y="170"/></Array></mxGeometry></mxCell><mxCell id="MklySer9mSSO_9Dpl_KQ-28" value="storeDataInFile" style="html=1;verticalAlign=bottom;endArrow=block;rounded=0;" edge="1" parent="1" source="MklySer9mSSO_9Dpl_KQ-13" target="MklySer9mSSO_9Dpl_KQ-26"><mxGeometry width="80" relative="1" as="geometry"><mxPoint x="470" y="150" as="sourcePoint"/><mxPoint x="550" y="150" as="targetPoint"/><Array as="points"><mxPoint x="650" y="150"/></Array></mxGeometry></mxCell><mxCell id="MklySer9mSSO_9Dpl_KQ-30" value="compressImageFile" style="html=1;verticalAlign=bottom;endArrow=block;rounded=0;" edge="1" parent="1" source="MklySer9mSSO_9Dpl_KQ-13" target="MklySer9mSSO_9Dpl_KQ-14"><mxGeometry width="80" relative="1" as="geometry"><mxPoint x="470" y="190" as="sourcePoint"/><mxPoint x="550" y="190" as="targetPoint"/><Array as="points"><mxPoint x="550" y="190"/></Array></mxGeometry></mxCell><mxCell id="MklySer9mSSO_9Dpl_KQ-38" value="" style="group" vertex="1" connectable="0" parent="1"><mxGeometry x="510" y="200" width="590" height="200" as="geometry"/></mxCell><mxCell id="MklySer9mSSO_9Dpl_KQ-39" value="" style="group" vertex="1" connectable="0" parent="MklySer9mSSO_9Dpl_KQ-38"><mxGeometry width="590" height="200" as="geometry"/></mxCell><mxCell id="MklySer9mSSO_9Dpl_KQ-33" value="Alternative" style="shape=umlFrame;whiteSpace=wrap;html=1;width=70;height=35;" vertex="1" parent="MklySer9mSSO_9Dpl_KQ-39"><mxGeometry width="590" height="200" as="geometry"/></mxCell><mxCell id="MklySer9mSSO_9Dpl_KQ-34" value="[if stream to FileStorage]" style="text;html=1;strokeColor=none;fillColor=none;align=left;verticalAlign=middle;whiteSpace=wrap;rounded=0;" vertex="1" parent="MklySer9mSSO_9Dpl_KQ-39"><mxGeometry x="10" y="89.99999999999999" width="90" height="30" as="geometry"/></mxCell><mxCell id="MklySer9mSSO_9Dpl_KQ-35" value="[if stream to BusTransactions]" style="text;html=1;strokeColor=none;fillColor=none;align=left;verticalAlign=middle;whiteSpace=wrap;rounded=0;" vertex="1" parent="MklySer9mSSO_9Dpl_KQ-39"><mxGeometry x="10" y="40" width="100" height="30" as="geometry"/></mxCell><mxCell id="MklySer9mSSO_9Dpl_KQ-36" value="" style="endArrow=none;dashed=1;html=1;rounded=0;" edge="1" parent="MklySer9mSSO_9Dpl_KQ-39"><mxGeometry width="50" height="50" relative="1" as="geometry"><mxPoint y="74" as="sourcePoint"/><mxPoint x="590" y="74" as="targetPoint"/><Array as="points"/></mxGeometry></mxCell><mxCell id="MklySer9mSSO_9Dpl_KQ-40" value="sendByUDP-Socket" style="html=1;verticalAlign=bottom;endArrow=block;rounded=0;" edge="1" parent="1" source="MklySer9mSSO_9Dpl_KQ-14" target="MklySer9mSSO_9Dpl_KQ-25"><mxGeometry width="80" relative="1" as="geometry"><mxPoint x="630" y="220" as="sourcePoint"/><mxPoint x="780" y="200" as="targetPoint"/><Array as="points"><mxPoint x="750" y="230"/></Array></mxGeometry></mxCell><mxCell id="MklySer9mSSO_9Dpl_KQ-41" value="storeDataInFile" style="html=1;verticalAlign=bottom;endArrow=block;rounded=0;" edge="1" parent="1" source="MklySer9mSSO_9Dpl_KQ-14" target="MklySer9mSSO_9Dpl_KQ-26"><mxGeometry width="80" relative="1" as="geometry"><mxPoint x="630" y="290" as="sourcePoint"/><mxPoint x="710" y="290" as="targetPoint"/><Array as="points"><mxPoint x="780" y="300"/><mxPoint x="870" y="300"/></Array></mxGeometry></mxCell></root></mxGraphModel></diagram></mxfile>